<?xml version="1.0" encoding="UTF-8" standalone="no"?>
<!-- Created with Inkscape (http://www.inkscape.org/) -->

<svg
   xmlns:dc="http://purl.org/dc/elements/1.1/"
   xmlns:cc="http://creativecommons.org/ns#"
   xmlns:rdf="http://www.w3.org/1999/02/22-rdf-syntax-ns#"
   xmlns:svg="http://www.w3.org/2000/svg"
   xmlns="http://www.w3.org/2000/svg"
   xmlns:sodipodi="http://sodipodi.sourceforge.net/DTD/sodipodi-0.dtd"
   xmlns:inkscape="http://www.inkscape.org/namespaces/inkscape"
   width="744.09448819"
   height="1052.3622047"
   id="svg2"
   version="1.1"
   inkscape:version="0.48.1 r9760"
   sodipodi:docname="New document 1">
  <defs
     id="defs4" />
  <sodipodi:namedview
     id="base"
     pagecolor="#ffffff"
     bordercolor="#666666"
     borderopacity="1.0"
     inkscape:pageopacity="0.0"
     inkscape:pageshadow="2"
     inkscape:zoom="1.032538"
     inkscape:cx="260"
     inkscape:cy="480"
     inkscape:document-units="px"
     inkscape:current-layer="layer1"
     showgrid="true"
     inkscape:object-paths="false"
     inkscape:snap-grids="true"
     inkscape:window-width="1280"
     inkscape:window-height="694"
     inkscape:window-x="0"
     inkscape:window-y="0"
     inkscape:window-maximized="0">
    <inkscape:grid
       type="xygrid"
       id="grid3759" />
  </sodipodi:namedview>
  <metadata
     id="metadata7">
    <rdf:RDF>
      <cc:Work
         rdf:about="">
        <dc:format>image/svg+xml</dc:format>
        <dc:type
           rdf:resource="http://purl.org/dc/dcmitype/StillImage" />
        <dc:title></dc:title>
      </cc:Work>
    </rdf:RDF>
  </metadata>
  <g
     inkscape:label="Layer 1"
     inkscape:groupmode="layer"
     id="layer1">
    <path
       style="fill:#005a00;stroke:#000000;stroke-width:1;stroke-miterlimit:4;stroke-opacity:1;fill-opacity:1"
       d="M 30 342.375 L 30 802.375 L 50 802.375 C 50 802.375 80 582.375 260 582.375 C 440 582.375 470 802.375 470 802.375 L 490 802.375 L 490 496.59375 L 489.5625 528.125 L 379.5625 528.125 L 379.5625 532.21875 L 299.5625 532.21875 C 299.5625 532.21875 292.99833 528.59039 288.6875 522.625 L 267.03125 522.625 L 267.03125 535.375 L 191.40625 497.125 L 267.03125 497.125 L 267.03125 501.53125 L 289.25 501.53125 C 293.68588 495.91228 300 492.5 300 492.5 L 380 492.5 L 380 496.59375 L 490 496.59375 L 490 342.375 L 30 342.375 z "
       id="rect3761" />
    <path
       style="fill:#8be68b;stroke:#000000;stroke-width:0.75323355000000003px;stroke-linecap:butt;stroke-linejoin:miter;stroke-opacity:1;fill-opacity:1"
       d="m 90,802.36218 c 0,0 29.57821,-190 170,-190 140.42179,0 170,190 170,190 l 40,0 c 0,0 -30,-220 -210,-220 -180,0 -210,220 -210,220 z"
       id="path3798-4"
       inkscape:connector-curvature="0"
       sodipodi:nodetypes="czcczcc" />
    <path
       style="fill:#005a00;stroke:#000000;stroke-width:0.48795006000000002px;stroke-linecap:butt;stroke-linejoin:miter;stroke-opacity:1;fill-opacity:1"
       d="m 130,802.36218 c 0,0 35.71429,-160 130,-160 94.28571,0 130,160 130,160 z"
       id="path3798-4-4"
       inkscape:connector-curvature="0"
       sodipodi:nodetypes="czcc" />
  </g>
</svg>
